HIERARCHY
ROOT Hips
{
	OFFSET 0.00 0.00 0.00
	CHANNELS 6 Xposition Yposition Zposition Xrotation Yrotation Zrotation
	JOINT LeftUpLeg
	{
		OFFSET 3.34807 0.00000 0.00000
		CHANNELS 3 Xrotation Yrotation Zrotation
		JOINT LeftLeg
		{
			OFFSET 0.00000 -16.98552 0.00000
			CHANNELS 3 Xrotation Yrotation Zrotation
			JOINT LeftFoot
			{
				OFFSET 0.00000 -16.83686 0.00000
				CHANNELS 3 Xrotation Yrotation Zrotation
				JOINT LeftToeBase
				{
					OFFSET 0.00000 -1.59599 5.95633
					CHANNELS 3 Xrotation Yrotation Zrotation
					End Site
					{
						OFFSET 0.00000 0.00000 2.95275
					}
				}
			}
		}
	}
	JOINT RightUpLeg
	{
		OFFSET -3.34807 0.00000 0.00000
		CHANNELS 3 Xrotation Yrotation Zrotation
		JOINT RightLeg
		{
			OFFSET 0.00000 -16.98552 0.00000
			CHANNELS 3 Xrotation Yrotation Zrotation
			JOINT RightFoot
			{
				OFFSET 0.00000 -16.83686 0.00000
				CHANNELS 3 Xrotation Yrotation Zrotation
				JOINT RightToeBase
				{
					OFFSET 0.00000 -1.59599 5.95633
					CHANNELS 3 Xrotation Yrotation Zrotation
					End Site
					{
						OFFSET 0.00000 0.00000 2.95275
					}
				}
			}
		}
	}
	JOINT Spine
	{
		OFFSET 0.00000 0.03937 0.00000
		CHANNELS 3 Xrotation Yrotation Zrotation
		JOINT Spine1
		{
			OFFSET 0.00000 7.93124 0.00000
			CHANNELS 3 Xrotation Yrotation Zrotation
			JOINT Neck
			{
				OFFSET 0.00000 8.48368 0.00000
				CHANNELS 3 Xrotation Yrotation Zrotation
				JOINT Head
				{
					OFFSET 0.00000 6.65077 0.00000
					CHANNELS 3 Xrotation Yrotation Zrotation
					End Site
					{
						OFFSET 0.00000 4.52755 0.00000
					}
				}
			}
			JOINT LeftShoulder
			{
				OFFSET 0.00000 8.48368 0.00000
				CHANNELS 3 Xrotation Yrotation Zrotation
				JOINT LeftArm
				{
					OFFSET 7.74502 -0.00003 0.00000
					CHANNELS 3 Xrotation Yrotation Zrotation
					JOINT LeftForeArm
					{
						OFFSET 12.49824 -0.00005 0.00000
						CHANNELS 3 Xrotation Yrotation Zrotation
						JOINT LeftHand
						{
							OFFSET 9.88337 -0.00004 0.00000
							CHANNELS 3 Xrotation Yrotation Zrotation
							JOINT LeftHandThumb
							{
								OFFSET 0.00000 0.00000 0.00000
								CHANNELS 3 Xrotation Yrotation Zrotation
								End Site
								{
									OFFSET 0.00000 0.00000 3.93700
								}
							}
							JOINT L_Wrist_End
							{
								OFFSET 3.93700 -0.00001 0.00000
								CHANNELS 3 Xrotation Yrotation Zrotation
							}
						}
					}
				}
			}
			JOINT RightShoulder
			{
				OFFSET 0.00000 8.48368 0.00000
				CHANNELS 3 Xrotation Yrotation Zrotation
				JOINT RightArm
				{
					OFFSET -7.74502 -0.00003 0.00000
					CHANNELS 3 Xrotation Yrotation Zrotation
					JOINT RightForeArm
					{
						OFFSET -12.49824 -0.00005 0.00000
						CHANNELS 3 Xrotation Yrotation Zrotation
						JOINT RightHand
						{
							OFFSET -9.88337 -0.00004 0.00000
							CHANNELS 3 Xrotation Yrotation Zrotation
							JOINT RightHandThumb
							{
								OFFSET 0.00000 0.00000 0.00000
								CHANNELS 3 Xrotation Yrotation Zrotation
								End Site
								{
									OFFSET 0.00000 0.00000 3.93700
								}
							}
							JOINT R_Wrist_End
							{
								OFFSET -5.39369 -0.00002 0.00000
								CHANNELS 3 Xrotation Yrotation Zrotation
							}
						}
					}
				}
			}
		}
	}
}
MOTION
Frames: 14
Frame Time: 0.066664
 -32.0750 32.3309 -10.3426 122.1404 77.8838 -123.9759 -2.9734 8.1809 4.9443 37.0262 -0.0000 0.0000 -30.6921 0.4241 -23.2053 -5.4177 0.0000 0.0000 -44.3358 -7.9225 -3.8537 76.5639 0.0000 0.0000 -13.6795 -22.8039 32.4651 -4.1554 0.0000 0.0000 -0.4882 -5.3476 1.0735 18.7943 -9.7426 -6.8130 -13.6026 4.4024 -0.3077 -12.2352 -14.9954 6.5168 -15.1423 11.5808 24.3813 -40.6659 -17.6249 -96.2960 -179.9991 -76.7736 -179.9989 -17.9149 -56.8610 47.6832 -0.0000 0.0000 -0.0000 -0.0000 0.0000 -0.0000 27.1997 -20.9899 -17.8686 30.0487 48.8346 47.0298 -0.0005 68.3940 0.0004 -15.2480 -5.6835 -14.5470 -0.0000 -0.0000 0.0000 -0.0000 -0.0000 0.0000
 -25.0307 33.2667 -9.9461 99.5858 78.8517 -103.2062 9.3657 12.2999 7.3271 27.7278 -0.0000 0.0000 0.2930 -3.7263 -16.5833 -41.5600 0.0000 -0.0000 -49.7468 -6.3840 0.9829 49.7859 -0.0000 0.0000 -3.6278 -20.5871 32.9199 -8.7155 0.0000 -0.0000 -1.4362 -7.5993 0.7615 18.8548 -10.1818 -1.7925 -15.4748 6.2915 0.4667 -11.9324 -9.5984 3.5336 -17.6468 11.2871 30.0604 -44.4480 -9.0886 -87.6326 -179.9996 -64.6865 -179.9993 -17.6128 -54.3852 43.8519 -0.0000 0.0000 -0.0000 -0.0000 0.0000 -0.0000 29.6174 -23.5065 -21.8307 27.9650 39.0066 52.3828 -0.0011 78.7420 0.0009 -21.1658 -4.8324 -14.5224 -0.0000 0.0000 -0.0000 -0.0000 0.0000 -0.0000
 -17.4323 33.5944 -9.9304 83.5576 78.3818 -86.3192 12.5206 10.4551 4.9054 33.1793 0.0000 0.0000 5.1444 1.5770 -27.4270 0.9530 0.0000 0.0000 -45.2748 -11.3660 1.0599 32.1914 -0.0000 0.0000 3.5946 -19.5918 42.1327 -9.4721 0.0000 0.0000 -2.1068 -8.9115 0.2640 18.6027 -9.7057 3.0984 -16.7043 8.6735 4.1867 -11.9727 -6.1189 -5.5537 -17.0498 12.9696 30.1009 -24.7142 -11.6892 -81.1827 -179.9995 -65.8492 -179.9993 -21.6091 -52.0627 43.1487 -0.0000 0.0000 -0.0000 -0.0000 0.0000 -0.0000 28.0435 -21.4673 -19.1156 13.8267 30.2864 66.4815 -0.0070 88.2875 0.0068 -9.4680 -6.1936 -15.6227 -0.0000 -0.0000 0.0000 -0.0000 -0.0000 0.0000
 -10.0241 32.7034 -9.8255 60.7741 78.7331 -63.7840 1.2981 14.4986 6.2814 59.8127 -0.0000 0.0000 -7.5221 6.5846 -24.7363 0.1825 0.0000 -0.0000 -38.8743 -15.1056 0.8240 45.5861 -0.0000 0.0000 -18.5976 -19.2374 19.9900 12.5159 -0.0000 0.0000 -1.7347 -8.0279 0.7208 20.5172 -6.9172 7.5906 -15.7210 10.1664 6.3916 -15.1973 -5.0584 -12.4990 -9.5264 17.8739 23.5867 -1.6026 -22.3415 -80.3588 -0.0014 -81.4168 -0.0012 -13.9096 -43.8640 30.6539 -0.0000 0.0000 -0.0000 -0.0000 0.0000 -0.0000 23.0035 -15.4774 -9.7178 -9.3497 26.9774 79.8170 -179.9979 84.1910 179.9977 -3.0286 -7.7581 -20.7767 -0.0000 0.0000 -0.0000 -0.0000 0.0000 -0.0000
 -3.6728 31.7219 -9.5792 27.2134 71.0038 -34.3596 -24.5273 14.5330 14.5607 89.8275 -0.0000 0.0000 -20.9800 11.8568 -15.7526 0.6601 -0.0000 -0.0000 -31.5471 -7.7557 7.7671 54.8115 -0.0000 0.0000 -29.1028 -18.8702 22.7760 9.7969 -0.0000 -0.0000 -0.1909 -4.1114 0.7779 21.1868 -0.4038 12.1250 -14.3001 12.4251 7.5031 -16.8260 -3.4816 -13.8641 -6.6731 19.7143 24.1001 18.9234 -37.1334 -85.0989 -0.0002 -42.4713 -0.0001 -16.2543 -42.2895 20.4339 -0.0000 -0.0000 0.0000 -0.0000 -0.0000 0.0000 16.3801 -5.6450 -3.9114 -49.5197 31.5305 95.8427 -179.9991 76.4915 179.9989 -4.6853 -11.0849 -20.9703 -0.0000 0.0000 -0.0000 -0.0000 0.0000 -0.0000
 3.3829 31.8239 -9.5557 22.1212 71.0375 -29.2774 -45.7307 1.5248 13.4223 93.2096 -0.0000 0.0000 -26.4492 12.8367 -9.6536 -0.2083 -0.0000 0.0000 -15.2275 -4.9928 4.7218 49.0989 -0.0000 0.0000 -31.5262 -18.5004 30.8944 4.1896 -0.0000 -0.0000 -1.1887 -0.6957 2.2646 21.6663 1.5077 8.5291 -12.4683 10.4304 6.1334 -18.3125 -7.3360 -11.0492 1.8632 25.4935 24.6316 47.7486 -50.9941 -67.1018 -0.0004 -61.5962 -0.0002 -14.3839 -42.4402 9.6740 -0.0000 0.0000 -0.0000 -0.0000 0.0000 -0.0000 6.7063 -1.4703 -14.1257 -73.3382 15.2628 108.2703 -179.9996 62.9920 179.9993 -3.1347 -9.5441 -20.0938 -0.0000 0.0000 -0.0000 -0.0000 0.0000 -0.0000
 11.6492 33.4066 -9.5307 18.3821 77.6049 -22.1255 -49.9361 -0.8432 8.1337 63.8062 -0.0000 0.0000 -11.6193 5.6721 -13.9487 -8.3330 0.0000 0.0000 6.9297 -5.7832 -1.8364 35.2878 0.0000 0.0000 -9.0857 -15.3699 37.1103 -15.7006 -0.0000 -0.0000 -2.3614 1.9878 2.5227 21.6327 0.7164 0.9704 -12.2164 6.5985 5.3257 -12.0782 -10.8146 -9.2851 6.7261 26.7169 26.0418 52.7299 -44.4269 -66.2074 -0.0005 -68.3181 -0.0004 -5.5824 -43.8095 0.0984 -0.0000 -0.0000 0.0000 -0.0000 -0.0000 0.0000 4.9368 -4.4292 -16.6204 -73.6740 13.3300 99.3584 -179.9997 53.8978 179.9994 -4.3910 -8.9001 -18.6488 -0.0000 0.0000 -0.0000 -0.0000 0.0000 -0.0000
 20.3333 34.7335 -9.1161 9.2774 77.9494 -14.5283 -43.1527 10.8717 13.7855 24.6281 -0.0000 0.0000 12.8424 -9.1266 -23.6643 -7.4447 -0.0000 0.0000 17.2313 -8.0545 -3.9850 33.4350 0.0000 0.0000 13.3716 -12.5333 35.6675 3.5591 -0.0000 0.0000 -6.0230 4.2535 2.5746 22.8151 1.9171 -2.2572 -12.5989 4.6983 1.9789 -3.1052 -10.3391 -2.9838 3.6537 28.7796 23.4042 42.6677 -33.2364 -73.4534 -0.0006 -71.1902 -0.0004 6.0933 -43.0715 8.7901 -0.0000 -0.0000 0.0000 -0.0000 -0.0000 0.0000 9.8211 -7.7555 -15.8826 -56.7556 29.8613 91.8226 -179.9996 62.4637 179.9993 -7.4483 -11.0805 -16.1225 -0.0000 0.0000 -0.0000 -0.0000 0.0000 -0.0000
 28.7104 34.3986 -8.8559 -6.8717 80.2981 -0.8334 -38.8004 19.5972 17.0404 18.6810 0.0000 -0.0000 17.3522 2.4326 -29.8333 -7.3028 -0.0000 0.0000 16.0552 -12.1774 -4.5246 51.9714 -0.0000 0.0000 4.8301 -26.7001 34.9321 3.5088 0.0000 0.0000 -7.1940 3.9730 3.0817 23.0013 0.2228 -4.6642 -11.2930 4.6201 0.0088 1.1832 -8.3861 1.8427 -1.5195 29.5903 20.3858 26.9220 -23.0458 -80.8124 -0.0010 -78.0820 -0.0008 7.9200 -42.8048 18.8119 -0.0000 0.0000 -0.0000 -0.0000 0.0000 -0.0000 14.5766 -11.4343 -14.2332 -34.2152 48.0789 82.9322 -0.0060 87.9932 0.0058 -9.1981 -14.8933 -14.3591 -0.0000 0.0000 -0.0000 -0.0000 0.0000 -0.0000
 36.3549 32.4868 -9.0911 -55.0932 85.4197 49.5132 -33.7861 17.2807 11.5114 38.5217 -0.0000 0.0000 -12.3804 -0.6362 -8.4912 16.1260 0.0000 -0.0000 4.4148 -13.9607 -8.1414 80.9228 -0.0000 0.0000 -0.3763 -25.9489 35.5850 2.4789 0.0000 0.0000 -4.6903 1.9993 1.1396 19.7479 -3.8306 -7.6652 -9.4156 4.4839 -0.4675 3.3095 -7.8007 3.8698 -5.9242 27.4181 17.7441 6.0177 -23.0442 -85.2308 -0.0054 -87.7664 -0.0052 8.8940 -42.9170 21.7825 -0.0000 -0.0000 0.0000 -0.0000 -0.0000 0.0000 18.4787 -13.4565 -13.0084 -10.9280 57.8688 71.1997 -0.0002 49.2984 0.0001 -10.3918 -16.2568 -13.5053 -0.0000 0.0000 -0.0000 -0.0000 0.0000 -0.0000
 42.5124 31.5477 -9.2727 -137.5926 79.6962 136.9561 -27.6560 7.6064 2.7982 57.1750 -0.0000 0.0000 -25.1918 1.4480 -9.3886 12.3940 -0.0000 0.0000 -16.0350 -11.8636 -11.8400 100.8160 -0.0000 0.0000 -7.6460 -22.9788 31.0925 -0.4836 0.0000 -0.0000 -3.4294 0.1566 -1.1010 23.2793 -7.1191 -10.8794 -7.4547 3.7649 0.1130 2.2131 -10.5977 3.2291 -9.4370 17.3765 22.4530 -23.3200 -22.1473 -94.4250 -179.9969 -86.1281 -179.9967 -7.4543 -38.0343 15.6061 -0.0000 0.0000 -0.0000 -0.0000 0.0000 -0.0000 21.1421 -17.0196 -15.1422 2.8194 58.8195 68.7063 -0.0001 32.8174 0.0000 -13.3834 -15.5492 -10.1014 -0.0000 0.0000 -0.0000 -0.0000 0.0000 -0.0000
 48.1650 32.0474 -8.8881 -141.9976 77.3226 140.5634 -16.7517 5.3933 5.2017 57.3551 -0.0000 0.0000 -31.6975 2.0929 -16.3886 9.0913 -0.0000 0.0000 -35.2819 -6.5515 -7.2998 89.9444 -0.0000 0.0000 -9.8374 -25.8691 29.9185 -3.0210 0.0000 0.0000 -2.3207 -3.1145 -2.4053 23.2298 -8.4692 -6.6254 -6.9597 6.7358 -0.9065 3.5242 -6.9651 1.2766 -14.3540 16.2376 27.3809 -33.3258 -15.1817 -94.4534 -179.9992 -75.6957 -179.9989 -10.6542 -38.6990 22.6811 -0.0000 0.0000 -0.0000 -0.0000 0.0000 -0.0000 22.9129 -16.7330 -18.6861 20.4995 52.9806 56.1903 -0.0003 51.6410 0.0001 -17.2577 -13.8116 -6.5917 -0.0000 0.0000 -0.0000 -0.0000 0.0000 -0.0000
 53.8328 33.0396 -8.4450 -159.5307 70.7676 157.4781 -8.9280 -0.8194 8.3132 55.8941 -0.0000 0.0000 -25.0568 -2.6674 -20.8228 -3.7167 0.0000 -0.0000 -38.7577 -7.6806 -8.8973 51.1587 -0.0000 0.0000 13.9260 -19.2590 39.7156 0.0053 -0.0000 0.0000 -2.5041 -5.8466 -1.7137 24.6286 -10.6079 -4.2987 -7.4961 7.3061 0.4181 3.6511 -7.3841 -0.1105 -15.9861 14.8661 29.1275 -33.8433 -13.6439 -88.6555 -179.9996 -63.0076 -179.9993 -16.7122 -51.2516 47.2962 -0.0000 0.0000 -0.0000 -0.0000 0.0000 -0.0000 24.9475 -18.3008 -16.9182 11.5828 42.9574 68.4672 -0.0003 56.8512 0.0002 148.4028 -3.7053 -9.0254 -0.0000 0.0000 -0.0000 -0.0000 0.0000 -0.0000
 59.9948 33.2721 -8.0838 -169.8402 63.5839 169.3136 -1.2498 -2.5421 12.6014 50.5504 -0.0000 0.0000 -18.0153 -9.4090 -21.7469 -16.2751 0.0000 -0.0000 -32.7722 -7.2274 -12.5786 22.3342 0.0000 0.0000 28.0653 -14.0394 49.5106 -5.1392 -0.0000 -0.0000 -4.1497 -6.5459 -1.8590 23.6583 -10.9014 -3.4142 -8.0712 5.8141 0.6506 6.7099 -9.0063 -0.1231 -15.8621 16.0097 28.0276 -23.9139 -17.7661 -85.2620 -179.9996 -62.6677 -179.9993 -17.8016 -51.5329 44.9879 -0.0000 -0.0000 0.0000 -0.0000 -0.0000 0.0000 25.3118 -18.8432 -14.2368 1.3320 36.8722 82.1088 -0.0004 59.0445 0.0002 139.8799 -11.8091 4.9998 -0.0000 0.0000 -0.0000 -0.0000 0.0000 -0.0000
